<?xml version="1.0" standalone="no"?>
<svg xmlns:xlink="http://www.w3.org/1999/xlink" id="wave" style="transform:rotate(0deg); transition: 0.3s" viewBox="0 0 1440 490" version="1.1" xmlns="http://www.w3.org/2000/svg"><defs><linearGradient id="sw-gradient-0" x1="0" x2="0" y1="1" y2="0"><stop stop-color="rgba(62, 190.884, 243, 1)" offset="0%"/><stop stop-color="rgba(11, 250.867, 255, 1)" offset="100%"/></linearGradient></defs><path style="transform:translate(0, 0px); opacity:1" fill="url(#sw-gradient-0)" d="M0,392L12.6,383.8C25.3,376,51,359,76,326.7C101.1,294,126,245,152,220.5C176.8,196,202,196,227,171.5C252.6,147,278,98,303,98C328.4,98,354,147,379,204.2C404.2,261,429,327,455,351.2C480,376,505,359,531,302.2C555.8,245,581,147,606,138.8C631.6,131,657,212,682,269.5C707.4,327,733,359,758,367.5C783.2,376,808,359,834,326.7C858.9,294,884,245,909,220.5C934.7,196,960,196,985,196C1010.5,196,1036,196,1061,236.8C1086.3,278,1112,359,1137,367.5C1162.1,376,1187,310,1213,285.8C1237.9,261,1263,278,1288,261.3C1313.7,245,1339,196,1364,212.3C1389.5,229,1415,310,1440,318.5C1465.3,327,1491,261,1516,220.5C1541.1,180,1566,163,1592,179.7C1616.8,196,1642,245,1667,220.5C1692.6,196,1718,98,1743,81.7C1768.4,65,1794,131,1806,163.3L1818.9,196L1818.9,490L1806.3,490C1793.7,490,1768,490,1743,490C1717.9,490,1693,490,1667,490C1642.1,490,1617,490,1592,490C1566.3,490,1541,490,1516,490C1490.5,490,1465,490,1440,490C1414.7,490,1389,490,1364,490C1338.9,490,1314,490,1288,490C1263.2,490,1238,490,1213,490C1187.4,490,1162,490,1137,490C1111.6,490,1086,490,1061,490C1035.8,490,1011,490,985,490C960,490,935,490,909,490C884.2,490,859,490,834,490C808.4,490,783,490,758,490C732.6,490,707,490,682,490C656.8,490,632,490,606,490C581.1,490,556,490,531,490C505.3,490,480,490,455,490C429.5,490,404,490,379,490C353.7,490,328,490,303,490C277.9,490,253,490,227,490C202.1,490,177,490,152,490C126.3,490,101,490,76,490C50.5,490,25,490,13,490L0,490Z"/></svg>